# xmcd
#
# Track frame offsets: 
#        150
#        15247
#        34777
#        51207
#        67317
#        81825
#        97547
#        113135
#        129587
#        141935
#        157250
#
# Disc length: 2256 seconds
#
# Revision: 2
# Processed by: cddbd v1.5.2PL0 Copyright (c) Steve Scherf et al.
# Submitted via: ExactAudioCopy v0.95b3
#
DISCID=8f08ce0b
DTITLE=Taylor, Chip - Last Chance
DYEAR=1973
DGENRE=Rock
TTITLE0=(I Want) The Real Thing
TTITLE1=Son of a Rotten Gambler
TTITLE2=I Read It in Rolling Stone
TTITLE3=(The Coal Fields of) Shikshinny
TTITLE4=I Wasn't Born in Tennessee
TTITLE5=(The Likes of) Louise
TTITLE6=It's Still the Same
TTITLE7=101 in Cashbox
TTITLE8=Family of One
TTITLE9=Clean Your Own Tables
TTITLE10=Last Chance
EXTD=
EXTT0=
EXTT1=
EXTT2=
EXTT3=
EXTT4=
EXTT5=
EXTT6=
EXTT7=
EXTT8=
EXTT9=
EXTT10=
PLAYORDER=
